<mxfile host="app.diagrams.net" modified="2023-06-10T21:14:35.212Z" agent="Mozilla/5.0 (Windows NT 10.0; Win64; x64) AppleWebKit/537.36 (KHTML, like Gecko) Chrome/114.0.0.0 Safari/537.36" etag="XlyGv3Ub6VNYvjuXAYkJ" version="21.3.7" type="device">
  <diagram name="Page-1" id="B0SF6t-8myypCtU-7HLx">
    <mxGraphModel dx="610" dy="322" grid="1" gridSize="10" guides="1" tooltips="1" connect="1" arrows="1" fold="1" page="1" pageScale="1" pageWidth="850" pageHeight="1100" math="0" shadow="0">
      <root>
        <mxCell id="0" />
        <mxCell id="1" parent="0" />
        <mxCell id="blLWAzjxGkhtaXdpe22a-13" style="edgeStyle=orthogonalEdgeStyle;rounded=0;orthogonalLoop=1;jettySize=auto;html=1;entryX=0.5;entryY=0;entryDx=0;entryDy=0;entryPerimeter=0;exitX=0.5;exitY=1;exitDx=0;exitDy=0;exitPerimeter=0;" edge="1" parent="1" source="blLWAzjxGkhtaXdpe22a-7" target="blLWAzjxGkhtaXdpe22a-2">
          <mxGeometry relative="1" as="geometry">
            <mxPoint x="450" y="210" as="sourcePoint" />
          </mxGeometry>
        </mxCell>
        <mxCell id="blLWAzjxGkhtaXdpe22a-14" style="edgeStyle=orthogonalEdgeStyle;rounded=0;orthogonalLoop=1;jettySize=auto;html=1;entryX=0;entryY=0.5;entryDx=0;entryDy=0;entryPerimeter=0;" edge="1" parent="1" source="blLWAzjxGkhtaXdpe22a-1" target="blLWAzjxGkhtaXdpe22a-2">
          <mxGeometry relative="1" as="geometry" />
        </mxCell>
        <mxCell id="blLWAzjxGkhtaXdpe22a-1" value="" style="sketch=0;points=[[0,0,0],[0.25,0,0],[0.5,0,0],[0.75,0,0],[1,0,0],[0,1,0],[0.25,1,0],[0.5,1,0],[0.75,1,0],[1,1,0],[0,0.25,0],[0,0.5,0],[0,0.75,0],[1,0.25,0],[1,0.5,0],[1,0.75,0]];outlineConnect=0;fontColor=#232F3E;gradientColor=#FF4F8B;gradientDirection=north;fillColor=#BC1356;strokeColor=#ffffff;dashed=0;verticalLabelPosition=bottom;verticalAlign=top;align=center;html=1;fontSize=12;fontStyle=0;aspect=fixed;shape=mxgraph.aws4.resourceIcon;resIcon=mxgraph.aws4.api_gateway;" vertex="1" parent="1">
          <mxGeometry x="275.12" y="270" width="78" height="78" as="geometry" />
        </mxCell>
        <mxCell id="blLWAzjxGkhtaXdpe22a-16" style="edgeStyle=orthogonalEdgeStyle;rounded=0;orthogonalLoop=1;jettySize=auto;html=1;" edge="1" parent="1" source="blLWAzjxGkhtaXdpe22a-2" target="blLWAzjxGkhtaXdpe22a-15">
          <mxGeometry relative="1" as="geometry" />
        </mxCell>
        <mxCell id="blLWAzjxGkhtaXdpe22a-2" value="" style="sketch=0;points=[[0,0,0],[0.25,0,0],[0.5,0,0],[0.75,0,0],[1,0,0],[0,1,0],[0.25,1,0],[0.5,1,0],[0.75,1,0],[1,1,0],[0,0.25,0],[0,0.5,0],[0,0.75,0],[1,0.25,0],[1,0.5,0],[1,0.75,0]];outlineConnect=0;fontColor=#232F3E;gradientColor=#F78E04;gradientDirection=north;fillColor=#D05C17;strokeColor=#ffffff;dashed=0;verticalLabelPosition=bottom;verticalAlign=top;align=center;html=1;fontSize=12;fontStyle=0;aspect=fixed;shape=mxgraph.aws4.resourceIcon;resIcon=mxgraph.aws4.lambda;" vertex="1" parent="1">
          <mxGeometry x="411" y="270" width="78" height="78" as="geometry" />
        </mxCell>
        <mxCell id="blLWAzjxGkhtaXdpe22a-17" style="edgeStyle=orthogonalEdgeStyle;rounded=0;orthogonalLoop=1;jettySize=auto;html=1;" edge="1" parent="1" source="blLWAzjxGkhtaXdpe22a-3" target="blLWAzjxGkhtaXdpe22a-7">
          <mxGeometry relative="1" as="geometry" />
        </mxCell>
        <mxCell id="blLWAzjxGkhtaXdpe22a-3" value="" style="image;sketch=0;aspect=fixed;html=1;points=[];align=center;fontSize=12;image=img/lib/mscae/Docker.svg;" vertex="1" parent="1">
          <mxGeometry x="270" y="158.01999999999998" width="73.12" height="59.96" as="geometry" />
        </mxCell>
        <mxCell id="blLWAzjxGkhtaXdpe22a-7" value="" style="outlineConnect=0;dashed=0;verticalLabelPosition=bottom;verticalAlign=top;align=center;html=1;shape=mxgraph.aws3.ecr;fillColor=#F58534;gradientColor=none;" vertex="1" parent="1">
          <mxGeometry x="415.5" y="152" width="69" height="72" as="geometry" />
        </mxCell>
        <mxCell id="blLWAzjxGkhtaXdpe22a-15" value="Response" style="text;html=1;strokeColor=default;fillColor=none;align=center;verticalAlign=middle;whiteSpace=wrap;rounded=0;strokeWidth=3;" vertex="1" parent="1">
          <mxGeometry x="567" y="294" width="89" height="30" as="geometry" />
        </mxCell>
        <mxCell id="blLWAzjxGkhtaXdpe22a-19" style="edgeStyle=orthogonalEdgeStyle;rounded=0;orthogonalLoop=1;jettySize=auto;html=1;" edge="1" parent="1" source="blLWAzjxGkhtaXdpe22a-18" target="blLWAzjxGkhtaXdpe22a-3">
          <mxGeometry relative="1" as="geometry" />
        </mxCell>
        <mxCell id="blLWAzjxGkhtaXdpe22a-18" value="" style="shape=image;verticalLabelPosition=bottom;labelBackgroundColor=default;verticalAlign=top;aspect=fixed;imageAspect=0;image=https://static.vecteezy.com/system/resources/previews/021/495/996/original/chatgpt-openai-logo-icon-free-png.png;" vertex="1" parent="1">
          <mxGeometry x="418.71" y="50" width="62.58" height="71.18" as="geometry" />
        </mxCell>
        <mxCell id="blLWAzjxGkhtaXdpe22a-20" value="OpenAI" style="text;html=1;strokeColor=none;fillColor=none;align=center;verticalAlign=middle;whiteSpace=wrap;rounded=0;" vertex="1" parent="1">
          <mxGeometry x="481.29" y="70.59" width="60" height="30" as="geometry" />
        </mxCell>
        <mxCell id="blLWAzjxGkhtaXdpe22a-21" value="ECR" style="text;html=1;strokeColor=none;fillColor=none;align=center;verticalAlign=middle;whiteSpace=wrap;rounded=0;" vertex="1" parent="1">
          <mxGeometry x="481.29" y="173" width="60" height="30" as="geometry" />
        </mxCell>
        <mxCell id="blLWAzjxGkhtaXdpe22a-22" value="Lambda" style="text;html=1;strokeColor=none;fillColor=none;align=center;verticalAlign=middle;whiteSpace=wrap;rounded=0;" vertex="1" parent="1">
          <mxGeometry x="420" y="348" width="60" height="30" as="geometry" />
        </mxCell>
        <mxCell id="blLWAzjxGkhtaXdpe22a-23" value="API Gateway" style="text;html=1;strokeColor=none;fillColor=none;align=center;verticalAlign=middle;whiteSpace=wrap;rounded=0;" vertex="1" parent="1">
          <mxGeometry x="284.12" y="348" width="60" height="30" as="geometry" />
        </mxCell>
      </root>
    </mxGraphModel>
  </diagram>
</mxfile>
